<svg width="475" height="476" viewBox="0 0 475 476" fill="none" xmlns="http://www.w3.org/2000/svg">
<path d="M189.973 125.17V158.902L200.487 161.093H258.313V125.17L221.076 120.79L189.973 125.17Z" fill="#EFEFE8"/>
<path d="M218.111 359.634L15.6733 355.492C15.1555 355.481 14.7412 355.059 14.7412 354.541V178.733V174.413C14.7412 174.005 15.0012 173.643 15.3876 173.512L94.5219 146.722C94.6871 146.666 94.8645 146.656 95.0347 146.694L220.911 174.851C221.267 174.931 221.638 174.799 221.865 174.513L229.128 165.338C229.308 165.11 229.583 164.977 229.874 164.977H235.706C235.948 164.977 236.181 165.07 236.358 165.236L266.782 193.897C266.958 194.063 267.192 194.156 267.434 194.156H434.147C434.374 194.156 434.594 194.237 434.766 194.385L439.736 198.645C440.083 198.943 440.595 198.951 440.998 198.735C442.046 198.172 443.976 197.491 446.587 197.491C449.047 197.491 450.6 198.852 451.413 200.068C451.773 200.608 451.336 201.242 450.686 201.242H447.539C447.013 201.242 446.587 201.668 446.587 202.194V207.078V315.242C446.587 315.759 446.174 316.181 445.657 316.193L268.272 320.108C268.063 320.113 267.862 320.186 267.699 320.316L218.725 359.427C218.551 359.565 218.334 359.639 218.111 359.634Z" fill="white"/>
<path d="M267.327 320.655L218.995 359.206C218.821 359.345 218.604 359.418 218.382 359.414L15.9433 355.272C15.4255 355.261 15.0112 354.838 15.0112 354.32V178.512" stroke="black" stroke-width="1.42728" stroke-linecap="round"/>
<path d="M267.074 320.115L310.006 319.239" stroke="black" stroke-width="1.43"/>
<path d="M345.49 318.363L446.686 316.6V202.71" stroke="black" stroke-width="1.43" stroke-linecap="round"/>
<path d="M218.886 358.666L218.886 179.93" stroke="black" stroke-width="1.42728" stroke-linecap="round"/>
<path d="M425.598 192.268H280.121" stroke="black" stroke-width="1.42728" stroke-linecap="round"/>
<path d="M220.638 156.123V121.414C220.638 120.847 221.13 120.406 221.694 120.468L257.465 124.417C257.947 124.471 258.312 124.878 258.312 125.363V161.531" stroke="black" stroke-width="1.42728" stroke-linecap="round"/>
<path d="M189.973 158.902V125.825C189.973 125.354 190.318 124.953 190.785 124.884L221.514 120.351" stroke="black" stroke-width="1.42728" stroke-linecap="round"/>
<path d="M237.604 213.816C237.604 213.108 238.348 212.648 238.981 212.965L252.917 219.933C253.24 220.094 253.443 220.424 253.443 220.784V319.33C253.443 319.638 253.294 319.927 253.043 320.105L239.106 330.008C238.476 330.455 237.604 330.005 237.604 329.232V213.816Z" fill="#050505"/>
<path d="M238.317 210.542C238.317 210.362 238.51 210.247 238.669 210.333L255.94 219.72C256.017 219.761 256.065 219.842 256.065 219.929V319.341C256.065 319.417 256.029 319.488 255.968 319.533L256.392 320.107L255.968 319.533L238.696 332.299C238.539 332.415 238.317 332.303 238.317 332.107V210.542Z" stroke="black" stroke-width="1.42728"/>
<path d="M230.517 354.001C259.696 357.335 302.38 372.592 273.035 401.937C243.689 431.283 126.585 462.796 71.7012 474.884" stroke="#050505" stroke-width="1.5"/>
<path d="M450.609 321.654L399.582 323.765C398.436 323.813 398.288 325.722 399.405 325.983C419.435 330.661 443.101 340.753 464.364 358.665" stroke="#050505" stroke-width="1.5"/>
<rect x="297.478" y="219.972" width="119.679" height="71.4909" fill="white" stroke="black" stroke-width="1.23"/>
<mask id="mask0_2778_12099" style="mask-type:alpha" maskUnits="userSpaceOnUse" x="299" y="220" width="113" height="72">
<path d="M299.296 221.147C299.296 220.622 299.722 220.196 300.247 220.196H410.057C410.583 220.196 411.009 220.622 411.009 221.147V288.571C411.009 289.089 410.595 289.511 410.078 289.522L300.268 291.871C299.734 291.883 299.296 291.454 299.296 290.92V221.147Z" fill="black"/>
</mask>
<g mask="url(#mask0_2778_12099)">
<path d="M377.662 250.945V232.381C377.662 231.864 378.075 231.441 378.592 231.43L413.788 230.639C414.322 230.627 414.761 231.056 414.761 231.59V251.736C414.761 252.27 414.322 252.7 413.788 252.688L378.592 251.897C378.075 251.885 377.662 251.463 377.662 250.945Z" stroke="black" stroke-width="0.95152" stroke-linecap="round"/>
<path d="M397.756 258.848L334.766 258.448C333.579 258.441 332.675 259.51 332.88 260.68L336.456 281.095C336.608 281.968 337.343 282.619 338.227 282.667L405.549 286.305C405.688 286.312 405.827 286.304 405.964 286.282L419.133 284.094C420.051 283.941 420.724 283.147 420.724 282.216V275.211C420.724 274.16 419.872 273.308 418.821 273.308H406.965C406.228 273.308 405.557 272.883 405.243 272.216L399.465 259.941C399.153 259.278 398.488 258.853 397.756 258.848Z" fill="black"/>
</g>
<path d="M365.574 228.533V273.551" stroke="black" stroke-width="1.42728" stroke-linecap="round"/>
<path d="M344.314 256.461V271.616C344.314 272.13 343.906 272.552 343.392 272.567L297.628 273.968" stroke="black" stroke-width="0.95152" stroke-linecap="round"/>
<path d="M348.065 256.044H297.211M348.065 254.377H297.211" stroke="black" stroke-width="0.95152" stroke-linecap="round"/>
<circle cx="330.141" cy="236.869" r="5.83576" fill="white"/>
<circle cx="310.967" cy="231.868" r="5.00208" fill="white"/>
<circle cx="317.637" cy="242.705" r="5.83576" fill="white"/>
<g filter="url(#filter0_d_2778_12099)">
<path d="M411.426 220.613V290.642" stroke="black" stroke-width="1.42728" stroke-linecap="round"/>
</g>
<path d="M286.47 236.861L287.501 227.926C287.566 227.361 287.125 226.865 286.556 226.865H279.064C278.509 226.865 278.072 227.337 278.115 227.89L278.802 236.825C278.84 237.321 279.254 237.703 279.751 237.703H285.525C286.008 237.703 286.415 237.341 286.47 236.861Z" fill="white"/>
<path d="M287.249 227.231L286.203 237.695" stroke="black" stroke-width="0.95152"/>
<path d="M280.538 226.448L280.972 237.695" stroke="black" stroke-width="0.95152"/>
<path d="M278.036 226.865L278.87 237.703" stroke="black" stroke-width="0.95152"/>
<path d="M278.736 239.232L278.641 238.97C278.417 238.349 278.877 237.695 279.536 237.695H285.894C286.553 237.695 287.013 238.349 286.789 238.97L286.695 239.228C286.572 239.57 286.264 239.812 285.902 239.851L282.726 240.193C282.656 240.201 282.586 240.2 282.517 240.193L279.524 239.854C279.164 239.813 278.859 239.572 278.736 239.232Z" fill="black" stroke="black" stroke-width="1.42728"/>
<path d="M277.483 226.339V226.534C277.483 226.727 277.64 226.883 277.832 226.883H286.901C287.286 226.883 287.598 226.57 287.598 226.185C287.598 225.8 287.284 225.492 286.9 225.453C285.036 225.263 284.083 224.319 283.668 223.493C283.452 223.064 283.053 222.697 282.573 222.697H282.038C281.613 222.697 281.252 222.988 281.046 223.359C280.438 224.452 279.257 225.045 278.317 225.316C277.851 225.451 277.483 225.854 277.483 226.339Z" fill="black" stroke="black" stroke-width="1.42728" stroke-linecap="round"/>
<rect x="93.3765" y="288.558" width="45.0187" height="2.50104" fill="white"/>
<path d="M161.602 317.718L141.83 317.336C141.311 317.326 140.896 316.903 140.896 316.385V198.638C140.896 198.113 141.322 197.687 141.848 197.687H161.621C162.146 197.687 162.572 198.113 162.572 198.638V316.766C162.572 317.299 162.135 317.728 161.602 317.718Z" fill="#050505"/>
<path d="M59.8916 315.214L42.62 314.843C42.1026 314.832 41.689 314.409 41.689 313.892V198.638C41.689 198.113 42.115 197.687 42.6405 197.687H59.9121C60.4376 197.687 60.8636 198.113 60.8636 198.638V314.263C60.8636 314.797 60.425 315.226 59.8916 315.214Z" fill="#050505"/>
<path d="M160.488 198.103V316.902" stroke="black" stroke-width="1.42728" stroke-linecap="round"/>
<path d="M41.6885 198.103V314.401" stroke="black" stroke-width="1.42728" stroke-linecap="round"/>
<rect x="174.025" y="266.493" width="33.6462" height="53.7978" rx="5.3" stroke="black" stroke-width="1.4"/>
<rect x="173.149" y="265.617" width="33.6462" height="53.7978" rx="5.3" fill="#DDFF0E" stroke="black" stroke-width="1.4"/>
<path d="M183.839 293.711L192.242 282.44L190.303 290.467H196.982L187.502 302.592L190.303 293.711H183.839Z" fill="#050505"/>
<path d="M191.836 321.071V358.587" stroke="black" stroke-width="1.42728" stroke-linecap="round"/>
<path d="M189.335 321.071V358.587" stroke="black" stroke-width="1.42728" stroke-linecap="round"/>
<path d="M374.702 306.834C376.775 307.089 376.7 309.315 376.404 310.396C375.514 313.639 373.09 312.702 372.849 312.702C370.235 312.702 365.964 308.504 365.89 307.886C365.817 307.267 365.04 306.105 368.334 306.967C371.629 307.829 372.111 306.516 374.702 306.834Z" fill="#050505"/>
<path d="M395.528 329.314C395.528 331.886 393.335 334.434 389.281 336.383C385.28 338.306 379.701 339.516 373.498 339.516C367.294 339.516 361.715 338.306 357.715 336.383C353.661 334.434 351.468 331.886 351.468 329.314C351.468 326.743 353.661 324.195 357.715 322.246C361.715 320.323 367.294 319.113 373.498 319.113C379.701 319.113 385.28 320.323 389.281 322.246C393.335 324.195 395.528 326.743 395.528 329.314Z" stroke="black" stroke-width="1.5"/>
<path d="M345.816 314.67C346.083 317 344.42 319.876 341.013 322.692C337.656 325.467 332.815 327.99 327.288 329.561C321.761 331.131 316.665 331.431 312.904 330.679C309.087 329.916 306.891 328.136 306.624 325.807C306.357 323.477 308.02 320.601 311.427 317.785C314.784 315.01 319.625 312.487 325.152 310.916C330.679 309.346 335.775 309.046 339.536 309.798C343.353 310.561 345.549 312.341 345.816 314.67Z" stroke="black" stroke-width="1.5"/>
<path d="M373.637 328.666L343.271 307.411L373.06 313.982" stroke="black" stroke-width="1.42728" stroke-linecap="round"/>
<path d="M325.747 320.115L348.965 303.03" stroke="black" stroke-width="1.42728" stroke-linecap="round"/>
<path d="M341.518 299.087L355.098 306.096" stroke="black" stroke-width="1.5" stroke-linecap="round"/>
<path d="M373.498 310.477V329.315" stroke="black" stroke-width="1.5" stroke-linecap="round"/>
<rect x="65.2966" y="198.068" width="73.2432" height="117.927" fill="white" stroke="black" stroke-width="1.23"/>
<path d="M78.75 302.701C75.2554 299.185 76.2061 276.806 77.1182 266.055C77.0935 265.5 77.4605 264.371 79.1262 264.297C81.2083 264.204 91.2026 263.759 94.7009 267.359C98.1992 270.958 102.208 295.398 105.16 296.101C108.112 296.804 116.802 295.165 117.274 296.396C116.919 297.802 114.896 301.091 109.64 302.995C103.07 305.373 83.1183 307.096 78.75 302.701Z" fill="#050505"/>
<path d="M89.208 304.398V315.236" stroke="black" stroke-width="0.95152"/>
<path d="M91.709 304.398V315.236" stroke="black" stroke-width="0.95152"/>
<path d="M118.624 288.14C116.948 287.135 113.598 283.415 113.598 278.59C113.598 272.886 120.792 270.329 121.571 264.965C121.647 264.445 122.065 264.015 122.591 264.015H122.645" stroke="black" stroke-width="0.95152" stroke-linecap="round"/>
<path d="M126.665 288.14C128.34 287.135 131.691 283.415 131.691 278.59C131.691 272.886 124.496 270.329 123.717 264.965C123.642 264.445 123.223 264.015 122.698 264.015H122.644" stroke="black" stroke-width="0.95152" stroke-linecap="round"/>
<path d="M134.884 262.596L133.465 243.438C130.154 242.256 121.19 240.6 111.824 243.438L110.05 262.596H134.884Z" fill="white" stroke="black"/>
<ellipse cx="122.467" cy="262.596" rx="12.4173" ry="1.06434" fill="black"/>
<path d="M135.894 288.558H93.3765" stroke="black" stroke-width="0.95152" stroke-linecap="round"/>
<path d="M135.894 291.058H93.3765" stroke="black" stroke-width="0.95152" stroke-linecap="round"/>
<path d="M138.812 319.404L58.3618 317.737" stroke="black" stroke-width="1.42728" stroke-linecap="round"/>
<path d="M69.6821 204.718C69.4219 204.682 69.1816 204.864 69.1455 205.124C69.1093 205.385 69.291 205.625 69.5512 205.661L69.6821 204.718ZM84.7091 207.27L84.6888 206.795L84.7091 207.27ZM84.5375 207.262L84.4721 207.733L84.5375 207.262ZM133.373 204.714L84.6888 206.795L84.7294 207.746L133.414 205.665L133.373 204.714ZM84.603 206.791L69.6821 204.718L69.5512 205.661L84.4721 207.733L84.603 206.791ZM84.6888 206.795C84.6601 206.796 84.6314 206.795 84.603 206.791L84.4721 207.733C84.5573 207.745 84.6434 207.749 84.7294 207.746L84.6888 206.795Z" fill="black"/>
<path d="M85.5158 207.274C85.5158 207.011 85.3028 206.798 85.04 206.798C84.7773 206.798 84.5643 207.011 84.5643 207.274H85.5158ZM84.5643 207.274V261.463H85.5158V207.274H84.5643Z" fill="black"/>
<path d="M78.1782 340.177C68.2546 342.6 60.4976 350.037 56.5756 355.197C56.0379 355.905 54.7428 355.644 54.4565 354.803C53.1087 350.843 49.6013 345.171 42.3898 341.334C41.4698 340.844 40.7026 342.016 41.4166 342.775C44.4894 346.042 47.9675 350.428 49.4076 354.358C49.7291 355.235 48.6608 355.751 47.9637 355.129C44.3172 351.875 37.2527 347.562 27.1504 346.498C11.7953 344.882 47.7548 355.409 49.9703 362.13C50.0906 362.495 50.3076 362.851 50.6622 362.999L54.2668 364.501C54.7251 364.692 55.2524 364.497 55.4886 364.06C61.1972 353.503 71.4987 345.839 78.6844 341.786C79.609 341.265 79.2095 339.925 78.1782 340.177Z" fill="white"/>
<path d="M55.0787 364.839C60.6922 353.879 71.3232 345.937 78.6844 341.786C79.609 341.265 79.2095 339.925 78.1782 340.177C68.2546 342.6 60.4976 350.037 56.5756 355.197C56.0379 355.905 54.7428 355.644 54.4565 354.803C53.1087 350.843 49.6013 345.171 42.3898 341.334C41.4698 340.844 40.7026 342.016 41.4166 342.775C44.4894 346.042 47.9675 350.428 49.4076 354.358C49.7291 355.235 48.6608 355.751 47.9637 355.129C44.3172 351.875 37.2527 347.562 27.1504 346.498C11.3105 344.831 50.0766 356.085 50.0766 362.755" stroke="#050505" stroke-width="1.4"/>
<path d="M185.723 341.844C175.799 344.266 168.042 351.703 164.12 356.864C163.582 357.571 162.287 357.31 162.001 356.469C160.653 352.509 157.146 346.837 149.934 343C149.014 342.511 148.247 343.683 148.961 344.442C152.034 347.708 155.512 352.094 156.952 356.024C157.274 356.902 156.205 357.418 155.508 356.796C151.862 353.541 144.797 349.228 134.695 348.165C119.34 346.548 155.299 357.075 157.515 363.797C157.635 364.161 157.852 364.518 158.207 364.665L161.811 366.167C162.27 366.358 162.797 366.164 163.033 365.727C168.742 355.169 179.043 347.505 186.229 343.453C187.153 342.931 186.754 341.592 185.723 341.844Z" fill="white"/>
<path d="M162.623 366.506C168.237 355.546 178.868 347.604 186.229 343.453C187.153 342.931 186.754 341.592 185.723 341.844C175.799 344.266 168.042 351.703 164.12 356.864C163.582 357.571 162.287 357.31 162.001 356.469C160.653 352.509 157.146 346.837 149.934 343C149.014 342.511 148.247 343.683 148.961 344.442C152.034 347.708 155.512 352.094 156.952 356.024C157.274 356.902 156.205 357.418 155.508 356.796C151.862 353.541 144.797 349.228 134.695 348.165C118.855 346.497 157.621 357.752 157.621 364.421" stroke="#050505" stroke-width="1.4"/>
<path d="M76.9408 342C85.9001 344.318 92.9185 350.999 96.551 355.726C97.0923 356.431 98.3992 356.17 98.6948 355.332C99.971 351.716 103.155 346.652 109.555 343.145C110.469 342.645 111.238 343.808 110.528 344.571C107.782 347.523 104.747 351.39 103.403 354.894C103.069 355.766 104.131 356.282 104.834 355.667C108.269 352.659 114.778 348.759 124.022 347.786C138.268 346.287 105.011 356.028 102.819 362.279C102.692 362.642 102.476 362.997 102.121 363.145L98.8677 364.5C98.4093 364.691 97.8821 364.497 97.6452 364.06C92.4174 354.43 83.0839 347.396 76.433 343.59C75.5117 343.062 75.9132 341.734 76.9408 342Z" fill="white"/>
<path d="M98.0558 364.839C92.9186 354.809 83.2618 347.498 76.433 343.59C75.5117 343.062 75.9132 341.734 76.9408 342C85.9001 344.318 92.9185 350.999 96.551 355.726C97.0923 356.431 98.3992 356.17 98.6948 355.332C99.971 351.716 103.155 346.652 109.555 343.145C110.469 342.645 111.238 343.808 110.528 344.571C107.782 347.523 104.747 351.39 103.403 354.894C103.069 355.766 104.131 356.282 104.834 355.667C108.269 352.659 114.778 348.759 124.022 347.786C138.75 346.236 102.707 356.7 102.707 362.901" stroke="#050505" stroke-width="1.4"/>
<path d="M401.548 106.655C420.236 106.655 435.386 91.5048 435.386 72.8162C435.386 54.1276 420.236 38.9775 401.548 38.9775C382.859 38.9775 367.709 54.1276 367.709 72.8162C367.709 91.5048 382.859 106.655 401.548 106.655Z" fill="#DDFF0E" stroke="black" stroke-width="1.16878" stroke-linecap="round" stroke-linejoin="round"/>
<path d="M332.555 52.434C332.555 52.434 354.549 61.3318 362.745 51.7286C370.945 42.1216 354.344 16.6156 354.344 16.6156C354.344 16.6156 374.904 37.1949 387.204 30.8041C399.504 24.4134 398.817 1.19434 398.817 1.19434C398.817 1.19434 394.35 24.5158 408.622 31.4337C422.894 38.3479 439.862 4.94155 439.862 4.94155C439.862 4.94155 422.59 33.9711 428.124 40.157C433.16 45.7892 451.65 30.2466 451.65 30.2466" stroke="black" stroke-width="1.23372" stroke-linecap="round" stroke-linejoin="round"/>
<path d="M341.934 71.9438C341.934 71.9438 353.301 73.222 354.033 77.3902C354.765 81.5584 348.647 88.6849 329.281 95.6863C329.281 95.6863 361.136 87.2551 367.216 93.2628C373.296 99.2704 349.368 127.572 349.368 127.572C349.368 127.572 370.781 113.095 378.477 114.551C386.172 116.012 381.939 136.72 381.939 136.72" stroke="black" stroke-width="1.23372" stroke-linecap="round" stroke-linejoin="round"/>
<path d="M413.267 153.613C413.267 153.613 412.494 116.816 418.331 112.583C424.168 108.35 447.925 121.864 447.925 121.864C447.925 121.864 431.078 104.595 435.762 98.3184C440.446 92.0414 457.403 93.3499 457.403 93.3499C457.403 93.3499 444.406 87.1147 444.489 78.1714C444.573 69.232 474 62.1813 474 62.1813C474 62.1813 443.658 61.8779 439.024 52.6843" stroke="black" stroke-width="1.23372" stroke-linecap="round" stroke-linejoin="round"/>
<path d="M404.192 161.531H198.296L228.523 175.111L267.95 202.71H457.638L404.192 161.531Z" fill="#EFEFE8" stroke="black" stroke-width="1.4"/>
<path d="M255.17 171.989C254.523 171.397 254.953 170.32 255.829 170.335L398.541 172.788C398.747 172.791 398.946 172.861 399.109 172.988L422.422 191.083C423.14 191.64 422.742 192.791 421.833 192.786L277.376 191.97C277.14 191.969 276.913 191.88 276.739 191.721L255.17 171.989Z" fill="white"/>
<path d="M275.338 192.037L254.857 172.453C254.206 171.83 254.647 170.73 255.548 170.73H396.839C397.062 170.73 397.279 170.805 397.455 170.943L422.496 190.526C423.245 191.112 422.831 192.314 421.88 192.314H276.029C275.772 192.314 275.524 192.215 275.338 192.037Z" fill="#D1E2ED" stroke="black" stroke-width="1.4"/>
<mask id="mask1_2778_12099" style="mask-type:alpha" maskUnits="userSpaceOnUse" x="255" y="171" width="168" height="22">
<path d="M255.643 172.807C255.023 172.214 255.443 171.168 256.301 171.168H397.231C397.44 171.168 397.643 171.237 397.809 171.364L421.696 189.647C422.416 190.198 422.03 191.349 421.123 191.354L276.277 192.194C276.03 192.195 275.792 192.101 275.614 191.93L255.643 172.807Z" fill="#DDFF0E"/>
</mask>
<g mask="url(#mask1_2778_12099)">
<path d="M583.065 245.032L243.418 166.383L246.254 156.047L585.641 235.647L583.065 245.032Z" fill="#EEF9FF"/>
<path d="M415.05 181.549L262.903 181.132" stroke="black" stroke-width="0.95152"/>
<path d="M354.191 192.803L331.682 171.127" stroke="black" stroke-width="0.95152"/>
<path d="M330.015 192.803L306.672 169.46" stroke="black" stroke-width="0.95152"/>
<path d="M403.378 193.637L376.7 171.127" stroke="black" stroke-width="0.95152"/>
<path d="M275.338 192.037L254.857 172.453C254.206 171.83 254.647 170.73 255.548 170.73H396.839C397.062 170.73 397.279 170.805 397.455 170.943L422.496 190.526C423.245 191.112 422.831 192.314 421.88 192.314H276.029C275.772 192.314 275.524 192.215 275.338 192.037Z" stroke="black" stroke-width="1.23"/>
</g>
<path d="M107.614 147.512L0.722656 182.558V170.333L107.614 134.37L227.647 170.333V182.558L107.614 147.512Z" fill="#EFEFE8" stroke="black" stroke-width="1.4"/>
<path d="M267.95 320.553V202.71" stroke="black" stroke-width="1.4"/>
<defs>
<filter id="filter0_d_2778_12099" x="406.906" y="219.899" width="9.0399" height="79.0685" filterUnits="userSpaceOnUse" color-interpolation-filters="sRGB">
<feFlood flood-opacity="0" result="BackgroundImageFix"/>
<feColorMatrix in="SourceAlpha" type="matrix" values="0 0 0 0 0 0 0 0 0 0 0 0 0 0 0 0 0 0 127 0" result="hardAlpha"/>
<feOffset dy="3.80608"/>
<feGaussianBlur stdDeviation="1.90304"/>
<feComposite in2="hardAlpha" operator="out"/>
<feColorMatrix type="matrix" values="0 0 0 0 0 0 0 0 0 0 0 0 0 0 0 0 0 0 0.25 0"/>
<feBlend mode="normal" in2="BackgroundImageFix" result="effect1_dropShadow_2778_12099"/>
<feBlend mode="normal" in="SourceGraphic" in2="effect1_dropShadow_2778_12099" result="shape"/>
</filter>
</defs>
</svg>
