<?xml version="1.0" encoding="UTF-8"?>
<svg id="Layer_2" data-name="Layer 2" xmlns="http://www.w3.org/2000/svg" viewBox="0 0 460.88 408.43">
  <defs>
    <style>
      .cls-1 {
        fill: #b3f829;
        stroke-width: 0px;
      }
    </style>
  </defs>
  <g id="Layer_1-2" data-name="Layer 1">
    <path class="cls-1" d="M456.23,186.86L358.36,17.35c-6.2-10.74-17.66-17.35-30.06-17.35h-195.73c-12.4,0-23.86,6.62-30.06,17.35L4.65,186.86c-6.2,10.74-6.2,23.97,0,34.71l97.87,169.51c6.2,10.74,17.66,17.35,30.06,17.35h195.73c12.4,0,23.86-6.62,30.06-17.35l97.87-169.51c6.2-10.74,6.2-23.97,0-34.71ZM407.3,186.93c-19.82,27-89.77,95.61-130.17,140.31-16.3,16.74-25.82,29.28-27.66,25.06l-.18-.46c-.7-19.34,5.1-47.94,8-73.54,1.39-8.43,3.34-16.98,8.39-23.7,18.35-21.81,70.01-28.49.78-28.26-19.35-.66-34.07,4.93-46.86,19.07-29.01,28.6-81.73,90.59-102.72,106.17-1.27.14-1.98-.9-2.26-3.18-.47-9.77,1.71-21.8,3.1-33.91,3.25-19.09,2.87-45.6,13.17-59.89,7.78-12.32,36.85-20.57,35.63-25.12-.52-3.2-13.49-3.2-27.57-3.21-9.16-1.9-92.43,5.09-84.95-6.59,26.87-32.43,119.95-127.51,148.59-158.93,8.07-8.43,10.84-8.71,8.45,10.76-2.71,19.22-5.02,49.76-9.99,69.77-1.52,5.05-3.57,9.41-6.8,13.36-9.33,13.04-36.07,17.95-33.71,24.48,3.86,2.93,15.99,2.15,22.78,2.43,21.5.26,37.77.2,52.71-14.07,29.55-29.74,60.36-63.86,89.13-93.89,11.47-11.57,22.6-27.08,21.15-8.48-1.07,13.61-5.27,46.32-8.29,66.65-1.66,17.76-13.45,30.74-29.43,37.29-4.92,2.84-19.34,7.95-10.96,11.22,22.39,2.95,61.37.54,87.03,1.47,8.7.13,15.69.44,19.34,1.54,2.57.76,3.62,1.91,3.29,3.63Z"/>
  </g>
</svg>