<?xml version="1.0" encoding="UTF-8"?>
<svg id="Layer_2" data-name="Layer 2" xmlns="http://www.w3.org/2000/svg" viewBox="0 0 460.88 408.43">
  <defs>
    <style>
      .cls-1 {
        fill: #b3f829;
      }

      .cls-1, .cls-2 {
        stroke-width: 0px;
      }

      .cls-2 {
        fill: #000;
      }
    </style>
  </defs>
  <g id="Layer_1-2" data-name="Layer 1">
    <g>
      <path class="cls-1" d="M328.31,0h-195.73c-12.4,0-23.86,6.62-30.06,17.35L4.65,186.86c-6.2,10.74-6.2,23.97,0,34.71l97.87,169.51c6.2,10.74,17.66,17.35,30.06,17.35h195.73c12.4,0,23.86-6.62,30.06-17.35l97.87-169.51c6.2-10.74,6.2-23.97,0-34.71L358.36,17.35c-6.2-10.74-17.66-17.35-30.06-17.35Z"/>
      <path class="cls-2" d="M249.47,352.31c1.84,4.21,11.36-8.33,27.66-25.06,40.4-44.7,110.36-113.31,130.17-140.31.32-1.72-.72-2.87-3.29-3.63-3.65-1.1-10.64-1.42-19.34-1.54-25.66-.93-64.64,1.48-87.03-1.47-8.38-3.27,6.03-8.38,10.96-11.22,15.98-6.55,27.77-19.53,29.43-37.29,3.02-20.33,7.22-53.03,8.29-66.65,1.44-18.6-9.68-3.09-21.15,8.48-28.77,30.03-59.58,64.15-89.13,93.89-14.93,14.28-31.2,14.33-52.71,14.07-6.79-.27-18.91.5-22.78-2.43-2.36-6.52,24.37-11.44,33.71-24.48,3.24-3.95,5.28-8.31,6.8-13.36,4.96-20.02,7.28-50.55,9.99-69.77,2.38-19.47-.38-19.2-8.45-10.76-28.64,31.42-121.72,126.5-148.59,158.93-7.48,11.68,75.79,4.68,84.95,6.59,14.07.01,27.05.02,27.57,3.21,1.22,4.54-27.85,12.8-35.63,25.12-10.3,14.29-9.92,40.8-13.17,59.89-1.39,12.11-3.57,24.14-3.1,33.91.27,2.28.98,3.32,2.26,3.18,20.99-15.58,73.72-77.56,102.72-106.17,12.79-14.14,27.5-19.73,46.86-19.07,69.23-.24,17.57,6.44-.78,28.26-5.05,6.72-7,15.27-8.39,23.7-2.9,25.6-8.7,54.2-8,73.54l.18.46Z"/>
    </g>
  </g>
</svg>