<svg width="461" height="409" viewBox="0 0 461 409" fill="none" xmlns="http://www.w3.org/2000/svg">
<g clip-path="url(#clip0_3110_2)">
<path d="M328.31 0H132.58C120.18 0 108.72 6.62 102.52 17.35L4.65 186.86C-1.55 197.6 -1.55 210.83 4.65 221.57L102.52 391.08C108.72 401.82 120.18 408.43 132.58 408.43H328.31C340.71 408.43 352.17 401.81 358.37 391.08L456.24 221.57C462.44 210.83 462.44 197.6 456.24 186.86L358.36 17.35C352.16 6.61 340.7 0 328.3 0H328.31Z" fill="#6B9518"/>
<path d="M249.47 352.31C251.31 356.52 260.83 343.98 277.13 327.25C317.53 282.55 387.49 213.94 407.3 186.94C407.62 185.22 406.58 184.07 404.01 183.31C400.36 182.21 393.37 181.89 384.67 181.77C359.01 180.84 320.03 183.25 297.64 180.3C289.26 177.03 303.67 171.92 308.6 169.08C324.58 162.53 336.37 149.55 338.03 131.79C341.05 111.46 345.25 78.76 346.32 65.14C347.76 46.54 336.64 62.0501 325.17 73.6201C296.4 103.65 265.59 137.77 236.04 167.51C221.11 181.79 204.84 181.84 183.33 181.58C176.54 181.31 164.42 182.08 160.55 179.15C158.19 172.63 184.92 167.71 194.26 154.67C197.5 150.72 199.54 146.36 201.06 141.31C206.02 121.29 208.34 90.76 211.05 71.54C213.43 52.07 210.67 52.34 202.6 60.78C173.96 92.2 80.8798 187.28 54.0098 219.71C46.5298 231.39 129.8 224.39 138.96 226.3C153.03 226.31 166.01 226.32 166.53 229.51C167.75 234.05 138.68 242.31 130.9 254.63C120.6 268.92 120.98 295.43 117.73 314.52C116.34 326.63 114.16 338.66 114.63 348.43C114.9 350.71 115.61 351.75 116.89 351.61C137.88 336.03 190.61 274.05 219.61 245.44C232.4 231.3 247.11 225.71 266.47 226.37C335.7 226.13 284.04 232.81 265.69 254.63C260.64 261.35 258.69 269.9 257.3 278.33C254.4 303.93 248.6 332.53 249.3 351.87L249.48 352.33L249.47 352.31Z" fill="#122A16"/>
</g>
<defs>
<clipPath id="clip0_3110_2">
<rect width="460.88" height="408.43" fill="white"/>
</clipPath>
</defs>
</svg>
