<?xml version="1.0" encoding="UTF-8"?>
<svg id="Layer_2" data-name="Layer 2" xmlns="http://www.w3.org/2000/svg" viewBox="0 0 904.25 299.83">
  <defs>
    <style>
      .cls-1 {
        fill: #000;
        stroke-width: 0px;
      }
    </style>
  </defs>
  <g id="Layer_1-2" data-name="Layer 1">
    <g>
      <path class="cls-1" d="M334.91,137.17L263.07,12.74c-4.55-7.88-12.96-12.74-22.06-12.74H97.32c-9.1,0-17.51,4.86-22.06,12.74L3.41,137.17c-4.55,7.88-4.55,17.6,0,25.48l71.84,124.43c4.55,7.88,12.96,12.74,22.06,12.74h143.68c9.1,0,17.51-4.86,22.06-12.74l71.84-124.43c4.55-7.88,4.55-17.6,0-25.48ZM298.99,137.23c-14.55,19.82-65.9,70.19-95.56,103-11.97,12.29-18.95,21.49-20.31,18.4l-.14-.34c-.52-14.2,3.74-35.19,5.87-53.98,1.02-6.19,2.45-12.47,6.16-17.39,13.47-16.01,51.39-20.92.57-20.74-14.21-.49-25.01,3.62-34.4,14-21.29,21-60,66.5-75.41,77.94-.93.1-1.45-.66-1.66-2.33-.34-7.17,1.25-16,2.27-24.89,2.38-14.01,2.11-33.48,9.67-43.96,5.71-9.04,27.05-15.1,26.15-18.44-.38-2.35-9.91-2.35-20.24-2.36-6.72-1.4-67.85,3.74-62.36-4.83,19.72-23.81,88.06-93.6,109.08-116.67,5.93-6.19,7.95-6.39,6.21,7.9-1.99,14.11-3.69,36.53-7.33,51.22-1.12,3.71-2.62,6.91-4.99,9.81-6.85,9.57-26.48,13.18-24.74,17.97,2.84,2.15,11.73,1.58,16.72,1.78,15.78.19,27.73.15,38.69-10.33,21.7-21.83,44.31-46.88,65.43-68.92,8.42-8.49,16.59-19.88,15.53-6.22-.79,9.99-3.87,34-6.08,48.92-1.22,13.03-9.87,22.56-21.61,27.37-3.61,2.08-14.2,5.84-8.04,8.24,16.43,2.17,45.05.4,63.89,1.08,6.39.09,11.52.32,14.2,1.13,1.89.56,2.66,1.4,2.42,2.67Z"/>
      <g>
        <g>
          <path class="cls-1" d="M440.72,138.86l-7.46,24.4h-32.27l42.55-134.52h46.59l43.16,134.52h-31.87l-7.66-24.4h-53.04ZM467.34,52.14l-19.76,63.93h39.73l-19.97-63.93Z"/>
          <path class="cls-1" d="M706.44,163.27h-30.65v-56.47c0-10.89.2-15.53,1.41-38.72l.6-12.91h-1l-3.83,12.51c-6.86,21.99-8.88,28.04-12.1,37.11l-21.58,58.49h-27.23l-21.78-58.29c-3.63-10.08-5.24-14.72-12.51-37.11l-3.83-12.3h-1.01l.61,12.7c1.4,22.99,1.61,29.04,1.61,38.52v56.47h-30.66V28.75h49.22l18.15,50.22c3.03,8.88,5.04,15.12,12.91,41.74h1.21l3.02-10.49c5.25-18.35,6.66-23.2,9.48-31.06l17.74-50.42h50.22v134.52Z"/>
          <path class="cls-1" d="M843.27,89.45c.21,8.27.4,17.14.4,26.62,0,20.77-2.22,29.25-9.48,37.11-8.27,8.67-19.36,11.09-51.02,11.09-19.97,0-28.24-1.01-36.1-4.24-17.55-7.46-24.2-21.38-24.2-51.43,0-33.08.8-44.17,3.83-53.45,3.83-12.5,13.11-20.97,26.62-24.81,6.66-1.81,16.34-2.62,35.09-2.62,24,0,31.87,1.21,40.95,6.45,9.48,5.44,13.31,15.53,13.91,35.7h-31.46c-1.21-13.92-4.64-16.13-26.42-16.13-17.55,0-24.4,2.22-27.83,9.27-2.62,5.25-2.82,6.26-3.02,30.86.4,29.65.4,29.85,2.82,35.3,2.82,6.66,10.08,9.07,26.42,9.07,24,0,29.04-3.83,29.04-22.38,0-.4-.2-2.42-.4-4.44h-29.24v-21.98h60.1Z"/>
        </g>
        <g>
          <path class="cls-1" d="M410.5,223.54h42.85v7.99h-42.85v31.44h44.75v8.24h-54.27v-84.56h54.27v8.24h-44.75v28.65Z"/>
          <path class="cls-1" d="M539.14,271.21h-15.59l-35.5-57.56-5.7-9.5-2.92-4.69-2.79-4.69h-.26l.13,3.17v73.28h-9.51v-84.56h15.59l30.81,50.46,8.11,13.18,4.06,6.6,3.93,6.59h.26l-.13-3.17v-73.66h9.51v84.56Z"/>
          <path class="cls-1" d="M563.6,223.54h42.85v7.99h-42.85v31.44h44.75v8.24h-54.27v-84.56h54.27v8.24h-44.75v28.65Z"/>
          <path class="cls-1" d="M620.1,186.65h40.19c18.13,0,24.72,6.47,24.72,24.34,0,15.34-3.29,20.41-14.58,22.31v.13c8.75.51,13.57,6.34,13.44,16.36v21.43h-9.5v-19.27c.25-10.77-4.57-15.09-15.98-14.7h-28.78v33.97h-9.51v-84.56ZM657.12,228.99c13.95,0,18.39-3.68,18.39-15.09,0-8.75-.51-12.43-2.28-14.84-1.9-2.79-6.09-4.18-12.81-4.18h-30.81v34.1h27.51Z"/>
          <path class="cls-1" d="M766.23,229.24c.26,3.55.26,3.94.26,9.13,0,15.46-.51,19.78-3.17,24.34-2.02,3.8-5.45,6.34-10.27,7.86-3.42,1.01-10.27,1.52-20.92,1.52-16.61,0-22.57-1.26-28.53-6.21-3.8-3.17-6.6-9.89-6.97-16.98-.13-3.81-.13-4.57-.25-21.05v-3.55c0-15.22,1.01-21.68,4.06-27.89,2.79-5.45,7.6-8.62,14.83-9.89,2.79-.51,8.24-.76,15.97-.76,19.02,0,22.32.51,28.15,4.19,3.17,2.03,5.58,5.96,6.34,10.27.38,3.04.51,4.68.51,11.02h-9.38c-.13-16.35-1.52-17.24-26.87-17.24-14.58,0-19.27,1.4-21.68,6.72-1.9,4.18-2.41,9.76-2.41,27,0,22.06.26,25.35,2.28,29.54,2.67,5.33,7.86,6.72,25.48,6.72,21.55,0,23.33-1.65,23.33-21.55,0-.89,0-2.8-.13-4.95h-26.87v-8.24h36.26Z"/>
          <path class="cls-1" d="M811.72,235.84v35.37h-9.5v-35.37l-31.07-49.19h11.03l18.13,28.53c2.53,4.18,4.06,6.59,4.43,7.22.89,1.27,1.65,2.54,2.41,3.81h.26c1.01-1.78,2.4-4.06,3.29-5.45l3.55-5.58,18.12-28.53h11.29l-31.95,49.19Z"/>
        </g>
      </g>
      <g>
        <path class="cls-1" d="M870.32,30.95h-6.61v-3.21h16.96v3.21h-6.61v17.66h-3.74v-17.66Z"/>
        <path class="cls-1" d="M904.25,48.61h-3.51v-16.12l-5.38,16.12h-3.1l-5.38-16.03v16.03h-3.51v-20.88h4.98l5.53,16.23,5.5-16.23h4.89v20.88Z"/>
      </g>
    </g>
  </g>
</svg>